<svg xmlns="http://www.w3.org/2000/svg" xmlns:xlink="http://www.w3.org/1999/xlink" width="214" zoomAndPan="magnify" viewBox="0 0 160.5 160.499994" height="214" preserveAspectRatio="xMidYMid meet" version="1.0"><defs><clipPath id="cf2e0bd7c6"><path d="M 104 10 L 152.613281 10 L 152.613281 100 L 104 100 Z M 104 10 " clip-rule="nonzero"/></clipPath><clipPath id="b4f5686619"><path d="M 7.5625 137 L 24 137 L 24 153 L 7.5625 153 Z M 7.5625 137 " clip-rule="nonzero"/></clipPath></defs><path fill="#ffffff" d="M 66.671875 158.410156 C 63.09375 158.410156 59.898438 156.910156 57.796875 154.558594 C 56.414062 154.964844 54.933594 155.183594 53.382812 155.183594 C 45.941406 155.183594 39.90625 150.179688 39.90625 144.011719 C 39.90625 143.90625 39.921875 143.804688 39.921875 143.699219 C 35.945312 142.015625 33.210938 138.585938 33.210938 134.621094 C 33.210938 132.421875 34.058594 130.398438 35.476562 128.730469 C 31.691406 126.257812 29.25 122.429688 29.25 118.125 C 29.25 115.878906 29.917969 113.773438 31.085938 111.90625 C 24.699219 109.230469 20.320312 103.757812 20.320312 97.417969 C 20.320312 91.246094 24.460938 85.878906 30.570312 83.128906 C 29.726562 81.492188 29.25 79.691406 29.25 77.800781 C 29.25 73.972656 31.171875 70.53125 34.25 68.070312 C 33.589844 66.816406 33.210938 65.433594 33.210938 63.972656 C 33.210938 59.699219 36.390625 56.039062 40.882812 54.519531 C 40.253906 53.226562 39.90625 51.820312 39.90625 50.34375 C 39.90625 44.171875 45.941406 39.167969 53.382812 39.167969 C 55.570312 39.167969 57.628906 39.613281 59.460938 40.375 C 61.433594 38.921875 63.9375 38.039062 66.671875 38.039062 C 72.996094 38.039062 78.125 42.71875 78.125 48.492188 L 78.125 147.957031 C 78.125 153.730469 72.996094 158.410156 66.671875 158.410156 " fill-opacity="1" fill-rule="nonzero"/><path stroke-linecap="round" transform="matrix(0.079522, 0, 0, -0.0794259, -88.816951, 248.860311)" fill="none" stroke-linejoin="round" d="M 1955.292969 1138.798752 C 1910.297565 1138.798752 1870.116079 1157.684271 1843.688647 1187.291256 C 1826.299593 1182.176428 1807.682499 1179.42229 1788.181215 1179.42229 C 1694.604528 1179.42229 1618.711623 1242.423201 1618.711623 1320.080062 C 1618.711623 1321.40795 1618.90811 1322.686657 1618.90811 1324.014546 C 1568.9023 1345.211573 1534.517165 1388.392526 1534.517165 1438.311281 C 1534.517165 1466.000206 1545.176557 1491.475984 1563.007706 1512.476288 C 1515.408855 1543.607886 1484.707842 1591.805304 1484.707842 1646.002809 C 1484.707842 1674.281907 1493.107639 1700.790487 1507.795004 1724.299024 C 1427.481154 1757.988036 1372.415817 1826.890672 1372.415817 1906.711498 C 1372.415817 1984.41754 1424.484735 2051.992288 1501.31095 2086.61574 C 1490.70068 2107.222595 1484.707842 2129.895054 1484.707842 2153.698677 C 1484.707842 2201.896096 1508.875679 2245.224591 1547.583517 2276.208646 C 1539.281963 2291.99576 1534.517165 2309.405848 1534.517165 2327.799556 C 1534.517165 2381.603613 1574.502165 2427.686247 1630.992029 2446.817671 C 1623.083448 2463.096595 1618.711623 2480.801769 1618.711623 2499.392202 C 1618.711623 2577.098244 1694.604528 2640.099155 1788.181215 2640.099155 C 1815.689323 2640.099155 1841.576417 2634.492517 1864.614457 2624.902214 C 1889.420876 2643.197561 1920.907835 2654.312476 1955.292969 2654.312476 C 2034.820873 2654.312476 2099.317561 2595.393591 2099.317561 2522.704015 L 2099.317561 1270.407213 C 2099.317561 1197.717637 2034.820873 1138.798752 1955.292969 1138.798752 Z M 1955.292969 1138.798752 " stroke="#040200" stroke-width="40" stroke-opacity="1" stroke-miterlimit="10"/><path stroke-linecap="round" transform="matrix(0.079522, 0, 0, -0.0794259, -88.816951, 248.860311)" fill-opacity="1" fill="#ffffff" fill-rule="nonzero" stroke-linejoin="round" d="M 1844.08162 1202.094749 C 1844.08162 1202.094749 1782.090134 1261.407083 1859.407565 1320.719416 " stroke="#040200" stroke-width="40" stroke-opacity="1" stroke-miterlimit="10"/><path stroke-linecap="round" transform="matrix(0.079522, 0, 0, -0.0794259, -88.816951, 248.860311)" fill-opacity="1" fill="#ffffff" fill-rule="nonzero" stroke-linejoin="round" d="M 1837.204593 2490.096986 C 1837.204593 2490.096986 1781.598918 2554.622509 1864.810944 2606.803592 " stroke="#040200" stroke-width="40" stroke-opacity="1" stroke-miterlimit="10"/><path stroke-linecap="round" transform="matrix(0.079522, 0, 0, -0.0794259, -88.816951, 248.860311)" fill-opacity="1" fill="#ffffff" fill-rule="nonzero" stroke-linejoin="round" d="M 1635.412975 1319.784976 C 1635.412975 1319.784976 1700.400879 1283.98118 1743.824392 1328.686744 " stroke="#040200" stroke-width="40" stroke-opacity="1" stroke-miterlimit="10"/><path stroke-linecap="round" transform="matrix(0.079522, 0, 0, -0.0794259, -88.816951, 248.860311)" fill-opacity="1" fill="#ffffff" fill-rule="nonzero" stroke-linejoin="round" d="M 1557.899057 2266.323257 C 1572.291692 2241.290108 1600.585745 2216.109416 1656.387907 2211.978209 " stroke="#040200" stroke-width="40" stroke-opacity="1" stroke-miterlimit="10"/><path stroke-linecap="round" transform="matrix(0.079522, 0, 0, -0.0794259, -88.816951, 248.860311)" fill-opacity="1" fill="#ffffff" fill-rule="nonzero" stroke-linejoin="round" d="M 1414.120073 2020.516423 C 1414.120073 2020.516423 1516.78426 2166.977558 1706.098987 2054.89397 " stroke="#040200" stroke-width="40" stroke-opacity="1" stroke-miterlimit="10"/><path stroke-linecap="round" transform="matrix(0.079522, 0, 0, -0.0794259, -88.816951, 248.860311)" fill-opacity="1" fill="#ffffff" fill-rule="nonzero" stroke-linejoin="round" d="M 1630.500812 2551.081474 C 1630.500812 2551.081474 1571.702232 2433.194523 1735.915811 2346.685075 " stroke="#040200" stroke-width="40" stroke-opacity="1" stroke-miterlimit="10"/><path stroke-linecap="round" transform="matrix(0.079522, 0, 0, -0.0794259, -88.816951, 248.860311)" fill-opacity="1" fill="#ffffff" fill-rule="nonzero" stroke-linejoin="round" d="M 1493.009396 1597.903753 C 1493.009396 1597.903753 1534.910138 1446.278609 1735.915811 1511.492667 " stroke="#040200" stroke-width="40" stroke-opacity="1" stroke-miterlimit="10"/><path stroke-linecap="round" transform="matrix(0.079522, 0, 0, -0.0794259, -88.816951, 248.860311)" fill-opacity="1" fill="#ffffff" fill-rule="nonzero" stroke-linejoin="round" d="M 1542.720476 1757.496225 C 1542.720476 1757.496225 1596.312164 1814.693774 1684.288987 1784.594978 " stroke="#040200" stroke-width="40" stroke-opacity="1" stroke-miterlimit="10"/><path fill="#ffffff" d="M 93.820312 38.039062 C 97.398438 38.039062 100.597656 39.542969 102.695312 41.890625 C 104.078125 41.496094 105.558594 41.265625 107.117188 41.265625 C 114.550781 41.265625 120.589844 46.269531 120.589844 52.449219 C 120.589844 52.550781 120.574219 52.648438 120.574219 52.75 C 124.546875 54.441406 127.285156 57.871094 127.285156 61.835938 C 127.285156 64.027344 126.441406 66.0625 125.019531 67.722656 C 128.804688 70.199219 131.246094 74.019531 131.246094 78.332031 C 131.246094 80.574219 130.578125 82.683594 129.40625 84.542969 C 135.792969 87.230469 140.175781 92.699219 140.175781 99.039062 C 140.175781 105.210938 136.03125 110.570312 129.925781 113.320312 C 130.773438 114.964844 131.246094 116.757812 131.246094 118.65625 C 131.246094 122.476562 129.320312 125.925781 126.242188 128.378906 C 126.902344 129.632812 127.285156 131.023438 127.285156 132.484375 C 127.285156 136.757812 124.101562 140.414062 119.609375 141.9375 C 120.238281 143.222656 120.589844 144.636719 120.589844 146.113281 C 120.589844 152.285156 114.550781 157.289062 107.117188 157.289062 C 104.921875 157.289062 102.863281 156.84375 101.027344 156.074219 C 99.0625 157.535156 96.558594 158.410156 93.820312 158.410156 C 87.5 158.410156 82.371094 153.730469 82.371094 147.957031 L 82.371094 48.492188 C 82.371094 42.71875 87.5 38.039062 93.820312 38.039062 " fill-opacity="1" fill-rule="nonzero"/><path stroke-linecap="round" transform="matrix(0.079522, 0, 0, -0.0794259, -88.816951, 248.860311)" fill="none" stroke-linejoin="round" d="M 2296.688234 2654.312476 C 2341.683638 2654.312476 2381.914246 2635.377776 2408.292556 2605.819971 C 2425.68161 2610.787256 2444.298704 2613.688937 2463.898231 2613.688937 C 2557.376675 2613.688937 2633.318701 2550.688026 2633.318701 2472.883622 C 2633.318701 2471.604915 2633.122215 2470.375389 2633.122215 2469.096682 C 2683.078903 2447.801292 2717.513159 2404.62034 2717.513159 2354.701585 C 2717.513159 2327.111022 2706.902889 2301.4877 2689.022619 2280.585759 C 2736.62147 2249.40498 2767.322483 2201.305923 2767.322483 2147.010056 C 2767.322483 2118.78014 2758.922686 2092.222378 2744.186199 2068.812204 C 2824.500049 2034.975649 2879.614508 1966.122194 2879.614508 1886.301367 C 2879.614508 1808.595325 2827.496468 1741.118939 2750.719375 1706.495488 C 2761.378767 1685.79027 2767.322483 1663.216173 2767.322483 1639.314188 C 2767.322483 1591.215132 2743.105524 1547.788274 2704.397686 1516.902581 C 2712.69924 1501.115468 2717.513159 1483.607018 2717.513159 1465.213309 C 2717.513159 1411.409252 2677.479038 1365.3758 2620.989174 1346.195194 C 2628.897755 1330.014632 2633.318701 1312.211096 2633.318701 1293.620663 C 2633.318701 1215.914621 2557.376675 1152.91371 2463.898231 1152.91371 C 2436.29188 1152.91371 2410.404786 1158.520349 2387.317624 1168.209013 C 2362.609449 1149.815305 2331.12249 1138.798752 2296.688234 1138.798752 C 2217.209451 1138.798752 2152.712763 1197.717637 2152.712763 1270.407213 L 2152.712763 2522.704015 C 2152.712763 2595.393591 2217.209451 2654.312476 2296.688234 2654.312476 Z M 2296.688234 2654.312476 " stroke="#040200" stroke-width="40" stroke-opacity="1" stroke-miterlimit="10"/><path stroke-linecap="round" transform="matrix(0.079522, 0, 0, -0.0794259, -88.816951, 248.860311)" fill-opacity="1" fill="#ffffff" fill-rule="nonzero" stroke-linejoin="round" d="M 2407.899583 2590.918116 C 2407.899583 2590.918116 2469.989312 2531.605783 2392.721002 2472.391812 " stroke="#040200" stroke-width="40" stroke-opacity="1" stroke-miterlimit="10"/><path stroke-linecap="round" transform="matrix(0.079522, 0, 0, -0.0794259, -88.816951, 248.860311)" fill-opacity="1" fill="#ffffff" fill-rule="nonzero" stroke-linejoin="round" d="M 2414.77661 1302.91588 C 2414.77661 1302.91588 2470.382285 1238.488718 2387.219381 1186.307636 " stroke="#040200" stroke-width="40" stroke-opacity="1" stroke-miterlimit="10"/><path stroke-linecap="round" transform="matrix(0.079522, 0, 0, -0.0794259, -88.816951, 248.860311)" fill-opacity="1" fill="#ffffff" fill-rule="nonzero" stroke-linejoin="round" d="M 2616.61735 2473.178708 C 2616.61735 2473.178708 2551.580324 2508.982505 2508.205933 2464.27694 " stroke="#040200" stroke-width="40" stroke-opacity="1" stroke-miterlimit="10"/><path stroke-linecap="round" transform="matrix(0.079522, 0, 0, -0.0794259, -88.816951, 248.860311)" fill-opacity="1" fill="#ffffff" fill-rule="nonzero" stroke-linejoin="round" d="M 2694.082146 1526.78797 C 2679.689511 1551.821119 2651.395458 1576.903449 2595.593296 1580.985476 " stroke="#040200" stroke-width="40" stroke-opacity="1" stroke-miterlimit="10"/><path stroke-linecap="round" transform="matrix(0.079522, 0, 0, -0.0794259, -88.816951, 248.860311)" fill-opacity="1" fill="#ffffff" fill-rule="nonzero" stroke-linejoin="round" d="M 2837.910252 1772.496442 C 2837.910252 1772.496442 2735.196943 1626.084488 2545.882216 1738.118896 " stroke="#040200" stroke-width="40" stroke-opacity="1" stroke-miterlimit="10"/><path stroke-linecap="round" transform="matrix(0.079522, 0, 0, -0.0794259, -88.816951, 248.860311)" fill-opacity="1" fill="#ffffff" fill-rule="nonzero" stroke-linejoin="round" d="M 2621.382147 1241.88221 C 2621.382147 1241.88221 2680.278971 1359.916704 2516.212757 1446.376971 " stroke="#040200" stroke-width="40" stroke-opacity="1" stroke-miterlimit="10"/><path stroke-linecap="round" transform="matrix(0.079522, 0, 0, -0.0794259, -88.816951, 248.860311)" fill-opacity="1" fill="#ffffff" fill-rule="nonzero" stroke-linejoin="round" d="M 2758.922686 2195.109112 C 2758.922686 2195.109112 2717.120186 2346.685075 2516.212757 2281.520198 " stroke="#040200" stroke-width="40" stroke-opacity="1" stroke-miterlimit="10"/><path stroke-linecap="round" transform="matrix(0.079522, 0, 0, -0.0794259, -88.816951, 248.860311)" fill-opacity="1" fill="#ffffff" fill-rule="nonzero" stroke-linejoin="round" d="M 2709.309849 2035.615002 C 2709.309849 2035.615002 2655.71816 1978.319091 2567.790459 2008.417887 " stroke="#040200" stroke-width="40" stroke-opacity="1" stroke-miterlimit="10"/><g clip-path="url(#cf2e0bd7c6)"><path stroke-linecap="round" transform="matrix(0.079522, 0, 0, -0.0794259, -88.816951, 248.860311)" fill="none" stroke-linejoin="round" d="M 2454.123029 1896.481842 L 3016.811195 1896.481842 L 3016.811195 2558.802898 L 2780.094104 2558.802898 L 2780.094104 2981.120481 " stroke="#040200" stroke-width="40" stroke-opacity="1" stroke-miterlimit="10"/></g><path stroke-linecap="round" transform="matrix(0.079522, 0, 0, -0.0794259, -88.816951, 248.860311)" fill="none" stroke-linejoin="round" d="M 2702.285457 2962.775954 L 2780.094104 3113.220753 L 2857.902752 2962.775954 " stroke="#040200" stroke-width="40" stroke-opacity="1" stroke-miterlimit="10"/><path stroke-linecap="round" transform="matrix(0.079522, 0, 0, -0.0794259, -88.816951, 248.860311)" fill="none" stroke-linejoin="round" d="M 1565.512908 2736.002182 L 1926.016483 2736.002182 L 1926.016483 3015.006217 L 2349.00276 3015.006217 L 2349.00276 2313.684598 " stroke="#040200" stroke-width="40" stroke-opacity="1" stroke-miterlimit="10"/><path stroke-linecap="round" transform="matrix(0.079522, 0, 0, -0.0794259, -88.816951, 248.860311)" fill="none" stroke-linejoin="round" d="M 1573.814462 2658.197778 L 1423.305816 2736.002182 L 1573.814462 2813.806586 " stroke="#040200" stroke-width="40" stroke-opacity="1" stroke-miterlimit="10"/><path stroke-linecap="round" transform="matrix(0.079522, 0, 0, -0.0794259, -88.816951, 248.860311)" fill="none" stroke-linejoin="round" d="M 1871.491484 1851.923821 L 1312.978656 1851.923821 L 1312.978656 1367.490584 " stroke="#040200" stroke-width="40" stroke-opacity="1" stroke-miterlimit="10"/><g clip-path="url(#b4f5686619)"><path stroke-linecap="round" transform="matrix(0.079522, 0, 0, -0.0794259, -88.816951, 248.860311)" fill="none" stroke-linejoin="round" d="M 1390.787303 1378.113689 L 1312.978656 1227.718071 L 1235.21913 1378.113689 " stroke="#040200" stroke-width="40" stroke-opacity="1" stroke-miterlimit="10"/></g><path fill="#ffffff" d="M 93.003906 76.601562 C 93.003906 76.601562 92 75.800781 91.101562 75.203125 C 87.363281 72.742188 83.871094 71.898438 80.753906 71.960938 C 77.644531 71.898438 74.15625 72.742188 70.410156 75.203125 C 69.519531 75.800781 68.515625 76.601562 68.515625 76.601562 C 55.277344 88.132812 64.207031 102.175781 70.066406 108.402344 C 70.339844 108.699219 70.601562 108.96875 70.855469 109.222656 C 72.207031 110.753906 74.949219 114.457031 76.046875 120.222656 L 85.464844 120.222656 C 86.570312 114.457031 89.3125 110.753906 90.664062 109.222656 C 90.917969 108.96875 91.179688 108.699219 91.453125 108.402344 C 97.3125 102.175781 106.242188 88.132812 93.003906 76.601562 " fill-opacity="1" fill-rule="nonzero"/><path stroke-linecap="round" transform="matrix(0.079522, 0, 0, -0.0794259, -88.816951, 248.860311)" fill="none" stroke-linejoin="round" d="M 2286.421815 2168.797256 C 2286.421815 2168.797256 2273.797559 2178.879369 2262.499586 2186.404068 C 2215.490195 2217.388123 2171.624587 2228.011228 2132.376412 2227.224331 C 2093.275602 2228.011228 2049.409995 2217.388123 2002.30236 2186.404068 C 1991.102631 2178.879369 1978.478374 2168.797256 1978.478374 2168.797256 C 1812.005201 2023.614829 1924.297227 1846.808993 1997.979658 1768.414416 C 2001.418171 1764.676657 2004.70932 1761.283165 2007.902225 1758.086398 C 2024.898306 1738.80743 2059.381684 1692.183805 2073.184859 1619.592591 L 2191.617087 1619.592591 C 2205.518506 1692.183805 2240.001883 1738.80743 2256.997964 1758.086398 C 2260.19087 1761.283165 2263.482018 1764.676657 2266.920532 1768.414416 C 2340.602963 1846.808993 2452.894988 2023.614829 2286.421815 2168.797256 Z M 2286.421815 2168.797256 " stroke="#040200" stroke-width="40" stroke-opacity="1" stroke-miterlimit="10"/><path stroke-linecap="round" transform="matrix(0.079522, 0, 0, -0.0794259, -88.816951, 248.860311)" fill-opacity="1" fill="#ffffff" fill-rule="nonzero" stroke-linejoin="round" d="M 2091.016008 1687.314882 L 2091.016008 1870.907702 L 2032.512157 1918.61331 " stroke="#040200" stroke-width="40" stroke-opacity="1" stroke-miterlimit="10"/><path stroke-linecap="round" transform="matrix(0.079522, 0, 0, -0.0794259, -88.816951, 248.860311)" fill-opacity="1" fill="#ffffff" fill-rule="nonzero" stroke-linejoin="round" d="M 2173.884182 1687.314882 L 2173.884182 1870.907702 L 2232.289789 1918.61331 " stroke="#040200" stroke-width="40" stroke-opacity="1" stroke-miterlimit="10"/><path fill="#ffffff" d="M 87.890625 119.863281 L 73.628906 119.863281 L 73.628906 114.84375 L 87.890625 114.84375 L 87.890625 119.863281 " fill-opacity="1" fill-rule="nonzero"/><path stroke-linecap="round" transform="matrix(0.079522, 0, 0, -0.0794259, -88.816951, 248.860311)" fill="none" stroke-linejoin="round" d="M 2222.121613 1624.117247 L 2042.778576 1624.117247 L 2042.778576 1687.314882 L 2222.121613 1687.314882 Z M 2222.121613 1624.117247 " stroke="#040200" stroke-width="40" stroke-opacity="1" stroke-miterlimit="10"/><path fill="#ffffff" d="M 86.964844 123.003906 L 74.546875 123.003906 L 74.546875 118.554688 L 86.964844 118.554688 L 86.964844 123.003906 " fill-opacity="1" fill-rule="nonzero"/><path stroke-linecap="round" transform="matrix(0.079522, 0, 0, -0.0794259, -88.816951, 248.860311)" fill="none" stroke-linejoin="round" d="M 2210.479789 1584.575691 L 2054.322157 1584.575691 L 2054.322157 1640.592895 L 2210.479789 1640.592895 Z M 2210.479789 1584.575691 " stroke="#040200" stroke-width="40" stroke-opacity="1" stroke-miterlimit="10"/><path fill="#ffffff" d="M 86.109375 124.78125 L 75.410156 124.78125 L 75.410156 121.222656 L 86.109375 121.222656 L 86.109375 124.78125 " fill-opacity="1" fill-rule="nonzero"/><path stroke-linecap="round" transform="matrix(0.079522, 0, 0, -0.0794259, -88.816951, 248.860311)" fill="none" stroke-linejoin="round" d="M 2199.722154 1562.198319 L 2065.178035 1562.198319 L 2065.178035 1607.002245 L 2199.722154 1607.002245 Z M 2199.722154 1562.198319 " stroke="#040200" stroke-width="40" stroke-opacity="1" stroke-miterlimit="10"/></svg>